<svg xmlns="http://www.w3.org/2000/svg" width="1944" height="2424" viewBox="0 0 1944 2424">
  <defs>
    <style>
      .cls-1 {
        stroke: #000;
        stroke-width: 1px;
        fill-rule: evenodd;
      }
    </style>
  </defs>
  <path class="cls-1" d="M847.889,997.151H1054.9a100,100,0,0,1,100,100V2290.81a1,1,0,0,1-1,1H748.889a1,1,0,0,1-1-1V1097.15A100,100,0,0,1,847.889,997.151Z"/>
  <path class="cls-1" d="M1421.86,106.206h306.9a1,1,0,0,1,1,1V2290.82a1,1,0,0,1-1,1h-405.9a1,1,0,0,1-1-1V206.206A100,100,0,0,1,1421.86,106.206Z"/>
  <path class="cls-1" d="M272.857,615.209h207.9a100,100,0,0,1,100,100V2303.82a1,1,0,0,1-1,1h-405.9a1,1,0,0,1-1-1V715.209A100,100,0,0,1,272.857,615.209Z"/>
</svg>
